<?xml version="1.0" encoding="iso-8859-1"?>
<!-- Generator: Adobe Illustrator 17.1.0, SVG Export Plug-In . SVG Version: 6.00 Build 0)  -->
<!DOCTYPE svg PUBLIC "-//W3C//DTD SVG 1.1//EN" "http://www.w3.org/Graphics/SVG/1.1/DTD/svg11.dtd">
<svg version="1.1" id="Capa_1" xmlns="http://www.w3.org/2000/svg" xmlns:xlink="http://www.w3.org/1999/xlink" x="0px" y="0px"
	 viewBox="0 0 512 512" style="enable-background:new 0 0 512 512;" xml:space="preserve">
<g>
	<path d="M304,160c0-5.123-0.805-10.169-2.392-14.998c-1.379-4.197-5.902-6.479-10.098-5.102c-4.198,1.379-6.482,5.9-5.103,10.098
		C287.464,153.212,288,156.577,288,160c0,17.645-14.355,32-32,32s-32-14.355-32-32s14.355-32,32-32c3.785,0,7.486,0.652,11,1.938
		c4.15,1.519,8.744-0.613,10.263-4.762c1.519-4.149-0.613-8.744-4.762-10.263C267.219,112.981,261.668,112,256,112
		c-26.467,0-48,21.533-48,48s21.533,48,48,48S304,186.468,304,160z"/>
	<path d="M362.8,337.74c-6.429-6.768-12.821-11.898-16.698-14.788C355.164,293.051,360,260.978,360,228
		c0-91.433-36.996-175.999-98.963-226.215c-2.937-2.38-7.137-2.38-10.073,0C188.996,52.001,152,136.568,152,228
		c0,32.978,4.837,65.051,13.898,94.953c-3.877,2.89-10.269,8.02-16.698,14.788C135.133,352.548,128,367.439,128,382v122
		c0,3.235,1.949,6.152,4.938,7.391c0.99,0.41,2.029,0.609,3.06,0.609c2.082,0,4.128-0.813,5.659-2.343l81.789-81.79
		c7.648,8.595,15.853,16.563,24.554,23.864V503c0,4.418,3.582,8,8,8s8-3.582,8-8v-51.268c8.701-7.301,16.906-15.27,24.554-23.864
		l81.789,81.79c1.53,1.53,3.576,2.343,5.659,2.343c1.03,0,2.07-0.199,3.06-0.609c2.989-1.238,4.938-4.155,4.938-7.391V382
		C384,367.439,376.867,352.548,362.8,337.74z M144,484.687V382c0-12.767,9.018-24.998,16.582-33.01
		c3.765-3.988,7.565-7.36,10.686-9.919c10.254,28.139,24.385,54.013,41.899,76.449L144,484.687z M264,430.271V328
		c0-4.418-3.582-8-8-8s-8,3.582-8,8v102.271c-5.955-5.685-11.625-11.727-16.985-18.109c-0.357-0.652-0.806-1.266-1.358-1.818
		c-0.175-0.175-0.358-0.337-0.545-0.492C190.317,362.437,168,297.387,168,228c0-84.128,32.782-161.908,88-209.571
		C311.218,66.092,344,143.872,344,228c0,69.386-22.317,134.436-61.112,181.851c-0.187,0.155-0.37,0.317-0.545,0.492
		c-0.552,0.552-1.001,1.166-1.358,1.818C275.625,418.544,269.955,424.586,264,430.271z M368,484.687l-69.167-69.167
		c17.525-22.449,31.662-48.34,41.917-76.499C352.011,348.262,368,365.088,368,382V484.687z"/>
</g>
<g>
</g>
<g>
</g>
<g>
</g>
<g>
</g>
<g>
</g>
<g>
</g>
<g>
</g>
<g>
</g>
<g>
</g>
<g>
</g>
<g>
</g>
<g>
</g>
<g>
</g>
<g>
</g>
<g>
</g>
</svg>
